<svg version="1.1" xmlns="http://www.w3.org/2000/svg" viewBox="0 0 1431 660">
  <!-- svg-source:excalidraw -->
  <defs>
    <style>
      @font-face {
        font-family: "Virgil";
        src: url("https://excalidraw.com/FG_Virgil.woff2");
      }
      @font-face {
        font-family: "Cascadia";
        src: url("https://excalidraw.com/Cascadia.woff2");
      }
    </style>
  </defs>
  <rect x="0" y="0" width="1431" height="660" fill="#ffffff"></rect><g transform="translate(1241 373) rotate(0 90 122)"><path d="M0.834198048338294 -0.42600866220891476 C50.59547220170497 -0.10416845288127674, 101.35460058785974 2.1559831121936437, 180.21158694289622 1.5133205447345972 M0.2322134869173169 -0.8227730141952634 C67.38796573411673 -0.8830426536500453, 134.79431784246117 -0.07049863561987868, 180.1783442692831 0.8562225652858615 M181.50225156199681 -0.5260460507190532 C182.4979888333273 91.7640121494767, 180.15626025106351 182.28726239177985, 180.05387394193886 245.6092401324359 M179.25948213944315 -0.1956253382778909 C181.71936090040327 60.20642199993342, 181.20455125447558 120.1164905469067, 180.3252040455199 244.12962929267292 M180.98621838353571 245.74759165383875 C134.3082023821771 242.39629090707749, 83.09373885579404 241.57962591331452, 1.2348650600761175 244.1713149342686 M179.31331257987765 244.91154327522963 C111.21670989599076 245.87830963023006, 44.142740764655144 245.1381059218198, -0.4530104799196124 244.73112380038947 M-1.245568048922496 245.29352326218162 C0.2835715313089586 170.1498653567266, 0.20891121384467848 95.2713751974317, -0.8751529698944381 -0.1641905744281359 M0.756225624190184 243.57433728437675 C-0.2799455783719329 169.6364483437799, 0.30446718149641466 93.29534081343428, 0.04194590781134031 -0.48434403879155175" stroke="#000000" stroke-width="1" fill="none"></path></g><g transform="translate(1270 341) rotate(0 67.5 12.5)"><text x="0" y="18" font-family="Virgil, Segoe UI Emoji" font-size="20px" fill="#000000" text-anchor="start" style="white-space: pre;" direction="ltr">CALL STACK</text></g><g><g transform="translate(754 39) rotate(0 -1.350659483466302 246.28988927161322)"><path d="M0.21802803240716462 0.43115232624113564 C-0.44801978685582067 82.20686868238573, -2.5694143686753703 409.84900966972737, -2.919346999339723 491.62099487047647 M-1.1266459799185395 -0.38809664782136677 C-1.4914775819020907 81.4756440038917, -0.32741272515924724 410.9203438365149, -0.54657397039231 492.9678751910478" stroke="#364fc7" stroke-width="1" fill="none"></path></g></g><g transform="translate(779 34) rotate(0 144.5 12.5)"><text x="0" y="18" font-family="Virgil, Segoe UI Emoji" font-size="20px" fill="#364fc7" text-anchor="start" style="white-space: pre;" direction="ltr">Memory of Global Environment</text></g><g transform="translate(91 119) rotate(0 318.5 190)"><path d="M0.31295398846268657 -0.5980229176580906 C201.16893937801942 1.35621833184734, 402.14225035961715 0.2667653260566293, 636.6898125328123 -0.25922861471772196 M0.33749053291976455 -0.194485430046916 C220.99609596254305 2.297978092145175, 441.6148801488802 2.100565732430667, 636.9182848554104 0.32825551815330983 M636.3342815168629 0.8249004909788258 C635.8845634117856 77.68257178799259, 636.0274931775496 155.72138892593728, 636.8185471477727 380.3593701379602 M636.7203994509938 -0.1229010796929244 C637.6359059929782 82.90758287500343, 638.3150517526963 164.67021575905733, 637.36644267955 379.62878455739815 M637.0917889513075 380.3444685660303 C407.6850799911655 382.62604409351576, 177.70394857618953 382.7987874378227, -0.08793667182326317 380.0089144192636 M637.1096128921956 379.92391917295754 C453.5332905719988 382.0165663497038, 269.62981790695335 381.6641666547842, -0.1176410336047411 379.7496668655425 M0.03276673428518698 380.21483068026055 C-0.9727497707772534 250.0323758060609, -1.5820484212655108 120.4456907535051, 0.9390301242510788 0.5007277238254435 M-0.3278365588156041 380.48256941197565 C0.12670826706225052 271.4866100482156, -0.8026380959651433 161.462171754316, -0.05334401490218006 0.016456656866287812" stroke="#364fc7" stroke-width="1" fill="none"></path></g><g transform="translate(115 94) rotate(0 115 12.5)"><text x="0" y="18" font-family="Virgil, Segoe UI Emoji" font-size="20px" fill="#364fc7" text-anchor="start" style="white-space: pre;" direction="ltr">new Execution Context</text></g><g><g transform="translate(391 153) rotate(0 0.5695220070518872 165.72089589511975)"><path d="M-0.10616610087454315 -0.7438553150743246 C0.4372538682073356 54.5148055696239, 2.373854112252593 275.4785192115853, 2.7600860472768547 331.1135881010443 M-1.6210420331731439 1.4800166991725563 C-1.2128478691354394 56.90384229653825, 0.6340086522325872 277.21831858589, 1.6860857584699986 332.1856471053138" stroke="#364fc7" stroke-width="1" fill="none"></path></g></g><g transform="translate(424 139) rotate(0 140.5 12.5)"><text x="0" y="18" font-family="Virgil, Segoe UI Emoji" font-size="20px" fill="#364fc7" text-anchor="start" style="white-space: pre;" direction="ltr">Memory of Local Environment</text></g><g><g transform="translate(30 42) rotate(0 47.94501800799745 57.97426404362545)"><path d="M0.9683884140104053 0.2771326962858438 C16.87971533499658 19.672268953298527, 80.18345348797737 97.34998482304316, 95.87238241396844 116.57150467075408 M0.01765360202640287 -0.6229765835031866 C15.72440586771816 18.398973956642052, 78.60614770021289 95.19230364336322, 94.85733771767467 114.74896987412124" stroke="#495057" stroke-width="1" fill="none"></path></g><g transform="translate(30 42) rotate(0 47.94501800799745 57.97426404362545)"><path d="M69.47187715932643 99.30753194545333 C78.61327070220466 102.89676996378283, 85.62982103650046 107.77501694312653, 93.70811002958565 116.37923812936991 M69.21719393204813 99.49346799501156 C75.29438548906256 103.57808789258608, 81.53543905215622 106.09522688446522, 95.82012611046433 115.50747822389006" stroke="#495057" stroke-width="1" fill="none"></path></g><g transform="translate(30 42) rotate(0 47.94501800799745 57.97426404362545)"><path d="M85.30785458257802 86.25602546397367 C89.18658213876377 94.3283687223945, 90.91863924169465 103.56192613298614, 93.70811002958565 116.37923812936991 M85.05317135529972 86.4419615135319 C87.39636760802156 93.44822456363632, 89.93263454889868 99.01873028622087, 95.82012611046433 115.50747822389006" stroke="#495057" stroke-width="1" fill="none"></path></g></g><g><g transform="translate(121 186) rotate(0 2.075745869334753 100.11885865950958)"><path d="M1.1261827055364846 -0.4346210483461618 C1.3711799804121254 33.028834473714234, 1.345869905129075 166.88619048558175, 1.8073752824217082 200.61225777827204 M0.2582898966036735 -1.7084010440669954 C0.8213894519768653 31.940236375276, 3.336332736369222 168.31751727873458, 3.8932018420659005 201.94611836308613" stroke="#495057" stroke-width="1" fill="none"></path></g><g transform="translate(121 186) rotate(0 2.075745869334753 100.11885865950958)"><path d="M-7.586795836681787 171.95276037200168 C-4.018889584431951 184.52065419434254, 1.6927456878426845 191.17287694798378, 3.777676337491721 201.41448706286027 M-5.8996117552689356 174.01555425177142 C-2.1670050368128777 184.2222975335396, 1.3703137182271217 194.38397777979003, 3.1118468140251934 201.15755981011316" stroke="#495057" stroke-width="1" fill="none"></path></g><g transform="translate(121 186) rotate(0 2.075745869334753 100.11885865950958)"><path d="M12.931228301365515 171.59125261779974 C9.76633562986758 184.47032160683435, 8.74567952128524 191.24116082770223, 3.777676337491721 201.41448706286027 M14.618412382778367 173.65404649756948 C10.529518342773446 184.18740507738073, 6.243820470702667 194.48691931548748, 3.1118468140251934 201.15755981011316" stroke="#495057" stroke-width="1" fill="none"></path></g></g><g><g transform="translate(124 406) rotate(0 -42.561321499878545 74.14636352086441)"><path d="M0.6464186254888773 0.8734709735959767 C-13.666116855169335 25.506617454315226, -70.66307101411124 122.4657445029666, -84.88263354860246 146.99597541056573 M-0.47335032546892775 0.28643928939476604 C-15.020488222284863 25.106355420692516, -71.63730216547225 123.15383715524649, -85.76906162524595 148.00628775233403" stroke="#495057" stroke-width="1" fill="none"></path></g><g transform="translate(124 406) rotate(0 -42.561321499878545 74.14636352086441)"><path d="M-79.18210157125489 118.64397161332518 C-84.472806254547 130.3366676379194, -84.67178196693116 142.3908735557372, -87.22327836440876 147.51007162468508 M-81.54382262404309 118.0070324742198 C-81.24649524595095 126.01367830129688, -82.36064066476177 134.23130546183742, -85.34834474815055 148.43066202444956" stroke="#495057" stroke-width="1" fill="none"></path></g><g transform="translate(124 406) rotate(0 -42.561321499878545 74.14636352086441)"><path d="M-61.3830993249883 128.8574686355618 C-73.41741106512764 136.73718676771935, -80.42833093634478 144.88253473837466, -87.22327836440876 147.51007162468508 M-63.7448203777765 128.2205294964564 C-68.05800451650946 133.5718928806508, -73.75655195798925 139.15887952778357, -85.34834474815055 148.43066202444956" stroke="#495057" stroke-width="1" fill="none"></path></g></g><g transform="translate(10 10) rotate(0 32.5 12.5)"><text x="0" y="18" font-family="Virgil, Segoe UI Emoji" font-size="20px" fill="#495057" text-anchor="start" style="white-space: pre;" direction="ltr">thread</text></g><g transform="translate(1305 625) rotate(0 27 12.5)"><text x="0" y="18" font-family="Virgil, Segoe UI Emoji" font-size="20px" fill="#087f5b" text-anchor="start" style="white-space: pre;" direction="ltr">global</text></g></svg>